{
    "accessors": {
        "accessor_100": {
            "bufferView": "bufferView_105",
            "byteOffset": 7032,
            "byteStride": 12,
            "componentType": 5126,
            "count": 586,
            "max": [
                0.999039,
                0.999038,
                1
            ],
            "min": [
                -0.999038,
                -0.999038,
                -1
            ],
            "type": "VEC3"
        },
        "accessor_102": {
            "bufferView": "bufferView_105",
            "byteOffset": 14064,
            "byteStride": 8,
            "componentType": 5126,
            "count": 586,
            "max": [
                0.993657,
                0.989576
            ],
            "min": [
                0.605093,
                0.00905001
            ],
            "type": "VEC2"
        },
        "accessor_63": {
            "bufferView": "bufferView_104",
            "byteOffset": 4608,
            "byteStride": 0,
            "componentType": 5123,
            "count": 864,
            "type": "SCALAR"
        },
        "accessor_66": {
            "bufferView": "bufferView_104",
            "byteOffset": 6336,
            "byteStride": 0,
            "componentType": 5123,
            "count": 5232,
            "type": "SCALAR"
        },
        "accessor_69": {
            "bufferView": "bufferView_104",
            "byteOffset": 16800,
            "byteStride": 0,
            "componentType": 5123,
            "count": 168,
            "type": "SCALAR"
        },
        "accessor_71": {
            "bufferView": "bufferView_105",
            "byteOffset": 18752,
            "byteStride": 12,
            "componentType": 5126,
            "count": 2386,
            "max": [
                2.438,
                2.58437,
                1.396
            ],
            "min": [
                -2.43091,
                0.2668,
                -1.396
            ],
            "type": "VEC3"
        },
        "accessor_73": {
            "bufferView": "bufferView_105",
            "byteOffset": 47384,
            "byteStride": 12,
            "componentType": 5126,
            "count": 2386,
            "max": [
                1,
                1,
                1
            ],
            "min": [
                -1,
                -1,
                -1
            ],
            "type": "VEC3"
        },
        "accessor_75": {
            "bufferView": "bufferView_105",
            "byteOffset": 76016,
            "byteStride": 8,
            "componentType": 5126,
            "count": 2386,
            "max": [
                0.896458,
                0.997245
            ],
            "min": [
                0.00295639,
                0.015672
            ],
            "type": "VEC2"
        },
        "accessor_96": {
            "bufferView": "bufferView_104",
            "byteOffset": 0,
            "byteStride": 0,
            "componentType": 5123,
            "count": 2304,
            "type": "SCALAR"
        },
        "accessor_98": {
            "bufferView": "bufferView_105",
            "byteOffset": 0,
            "byteStride": 12,
            "componentType": 5126,
            "count": 586,
            "max": [
                0.4278,
                0.4278,
                1.058
            ],
            "min": [
                -0.4278,
                -0.4278,
                -1.058
            ],
            "type": "VEC3"
        },
        "animAccessor_0": {
            "bufferView": "bufferView_103",
            "byteOffset": 0,
            "componentType": 5126,
            "count": 31,
            "type": "SCALAR"
        },
        "animAccessor_1": {
            "bufferView": "bufferView_103",
            "byteOffset": 124,
            "componentType": 5126,
            "count": 31,
            "type": "VEC4"
        }
    },
    "animations": {
        "animation_0": {
            "channels": [
                {
                    "sampler": "animation_0_rotation_sampler",
                    "target": {
                        "id": "Geometry-mesh001Node",
                        "path": "rotation"
                    }
                }
            ],
            "count": 31,
            "parameters": {
                "TIME": "animAccessor_0",
                "rotation": "animAccessor_1"
            },
            "samplers": {
                "animation_0_rotation_sampler": {
                    "input": "TIME",
                    "interpolation": "LINEAR",
                    "output": "rotation"
                }
            }
        },
        "animation_1": {
            "channels": [
                {
                    "sampler": "animation_1_rotation_sampler",
                    "target": {
                        "id": "meshInst962Node",
                        "path": "rotation"
                    }
                }
            ],
            "count": 31,
            "parameters": {
                "TIME": "animAccessor_0",
                "rotation": "animAccessor_1"
            },
            "samplers": {
                "animation_1_rotation_sampler": {
                    "input": "TIME",
                    "interpolation": "LINEAR",
                    "output": "rotation"
                }
            }
        }
    },
    "asset": {
        "generator": "collada2gltf@173625dc5ff1b7e8046666be1f3ca2835512ac08",
        "premultipliedAlpha": true,
        "profile": "WebGL 1.0.2",
        "version": 0.8
    },
    "bufferViews": {
        "bufferView_103": {
            "buffer": "Model",
            "byteLength": 620,
            "byteOffset": 0
        },
        "bufferView_104": {
            "buffer": "Model",
            "byteLength": 17136,
            "byteOffset": 620,
            "target": 34963
        },
        "bufferView_105": {
            "buffer": "Model",
            "byteLength": 95104,
            "byteOffset": 17756,
            "target": 34962
        }
    },
    "buffers": {
        "Model": {
            "byteLength": 112860,
            "type": "arraybuffer",
            "uri": "data:application/octet-stream;base64,"
        }
    },
    "images": {
        "Image0001": {
            "uri": "Cesium%20Milk%20Truck.png"
        }
    },
    "materials": {
        "Effect-glass": {
            "instanceTechnique": {
                "technique": "technique0",
                "values": {
                    "diffuse": [
                        0,
                        0.0405063,
                        0.0212407,
                        1
                    ],
                    "shininess": 256,
                    "specular": [
                        0.65,
                        0.65,
                        0.65,
                        1
                    ]
                }
            },
            "name": "glass"
        },
        "Effect-truck": {
            "instanceTechnique": {
                "technique": "technique1",
                "values": {
                    "diffuse": "texture_Image0001",
                    "shininess": 256,
                    "specular": [
                        0.04,
                        0.04,
                        0.04,
                        1
                    ]
                }
            },
            "name": "truck"
        },
        "Effect-wheels": {
            "instanceTechnique": {
                "technique": "technique1",
                "values": {
                    "diffuse": "texture_Image0001",
                    "shininess": 256,
                    "specular": [
                        0.04,
                        0.04,
                        0.04,
                        1
                    ]
                }
            },
            "name": "wheels"
        },
        "Effect-window_trim": {
            "instanceTechnique": {
                "technique": "technique0",
                "values": {
                    "diffuse": [
                        0.064,
                        0.064,
                        0.064,
                        1
                    ],
                    "shininess": 256,
                    "specular": [
                        0.04,
                        0.04,
                        0.04,
                        1
                    ]
                }
            },
            "name": "window_trim"
        }
    },
    "meshes": {
        "Geometry-mesh001": {
            "name": "Wheels",
            "primitives": [
                {
                    "attributes": {
                        "NORMAL": "accessor_100",
                        "POSITION": "accessor_98",
                        "TEXCOORD_0": "accessor_102"
                    },
                    "indices": "accessor_96",
                    "material": "Effect-wheels",
                    "primitive": 4
                }
            ]
        },
        "Geometry-mesh002": {
            "name": "Cesium_Milk_Truck",
            "primitives": [
                {
                    "attributes": {
                        "NORMAL": "accessor_73",
                        "POSITION": "accessor_71",
                        "TEXCOORD_0": "accessor_75"
                    },
                    "indices": "accessor_63",
                    "material": "Effect-window_trim",
                    "primitive": 4
                },
                {
                    "attributes": {
                        "NORMAL": "accessor_73",
                        "POSITION": "accessor_71",
                        "TEXCOORD_0": "accessor_75"
                    },
                    "indices": "accessor_66",
                    "material": "Effect-truck",
                    "primitive": 4
                },
                {
                    "attributes": {
                        "NORMAL": "accessor_73",
                        "POSITION": "accessor_71",
                        "TEXCOORD_0": "accessor_75"
                    },
                    "indices": "accessor_69",
                    "material": "Effect-glass",
                    "primitive": 4
                }
            ]
        }
    },
    "nodes": {
        "Geometry-mesh001Node": {
            "children": [],
            "meshes": [
                "Geometry-mesh001"
            ],
            "name": "Wheels",
            "rotation": [
                1,
                0,
                0,
                0
            ],
            "scale": [
                1,
                1,
                1
            ],
            "translation": [
                1.43267,
                0.427722,
                -2.98023e-008
            ]
        },
        "Geometry-mesh002Node": {
            "children": [
                "Geometry-mesh001Node",
                "meshInst962Node"
            ],
            "matrix": [
                1,
                0,
                0,
                0,
                0,
                1,
                0,
                0,
                0,
                0,
                1,
                0,
                0,
                0,
                0,
                1
            ],
            "meshes": [
                "Geometry-mesh002"
            ],
            "name": "Cesium_Milk_Truck"
        },
        "groupLocator006Node": {
            "children": [
                "txtrLocator003Node",
                "txtrLocator013Node"
            ],
            "matrix": [
                1,
                0,
                0,
                0,
                0,
                1,
                0,
                0,
                0,
                0,
                1,
                0,
                0,
                0,
                0,
                1
            ],
            "name": "Texture_Group"
        },
        "meshInst962Node": {
            "children": [],
            "meshes": [
                "Geometry-mesh001"
            ],
            "name": "Wheels__2_",
            "rotation": [
                1,
                0,
                0,
                0
            ],
            "scale": [
                1,
                1,
                1
            ],
            "translation": [
                -1.35233,
                0.427722,
                -2.98023e-008
            ]
        },
        "txtrLocator003Node": {
            "children": [],
            "matrix": [
                1,
                0,
                0,
                0,
                0,
                1,
                0,
                0,
                0,
                0,
                1,
                0,
                0,
                0,
                0,
                1
            ],
            "name": "Cesium_Milk_Truck__2___Image___Texture_"
        },
        "txtrLocator013Node": {
            "children": [],
            "matrix": [
                1,
                0,
                0,
                0,
                0,
                1,
                0,
                0,
                0,
                0,
                1,
                0,
                0,
                0,
                0,
                1
            ],
            "name": "Cesium_Milk_Truck__2___Image___2___Texture_"
        }
    },
    "programs": {
        "program_0": {
            "attributes": [
                "a_normal",
                "a_position"
            ],
            "fragmentShader": "Model0FS",
            "vertexShader": "Model0VS"
        },
        "program_1": {
            "attributes": [
                "a_normal",
                "a_position",
                "a_texcoord0"
            ],
            "fragmentShader": "Model1FS",
            "vertexShader": "Model1VS"
        }
    },
    "samplers": {
        "sampler_0": {
            "magFilter": 9729,
            "minFilter": 9987,
            "wrapS": 10497,
            "wrapT": 10497
        }
    },
    "scene": "defaultScene",
    "scenes": {
        "defaultScene": {
            "nodes": [
                "Geometry-mesh002Node",
                "groupLocator006Node"
            ]
        }
    },
    "shaders": {
        "Model0FS": {
            "type": 35632,
            "uri": "data:text/plain;base64,"
        },
        "Model0VS": {
            "type": 35633,
            "uri": "data:text/plain;base64,"
        },
        "Model1FS": {
            "type": 35632,
            "uri": "data:text/plain;base64,"
        },
        "Model1VS": {
            "type": 35633,
            "uri": "data:text/plain;base64,"
        }
    },
    "skins": {},
    "techniques": {
        "technique0": {
            "parameters": {
                "diffuse": {
                    "type": 35666
                },
                "modelViewMatrix": {
                    "semantic": "MODELVIEW",
                    "type": 35676
                },
                "normal": {
                    "semantic": "NORMAL",
                    "type": 35665
                },
                "normalMatrix": {
                    "semantic": "MODELVIEWINVERSETRANSPOSE",
                    "type": 35675
                },
                "position": {
                    "semantic": "POSITION",
                    "type": 35665
                },
                "projectionMatrix": {
                    "semantic": "PROJECTION",
                    "type": 35676
                },
                "shininess": {
                    "type": 5126
                },
                "specular": {
                    "type": 35666
                }
            },
            "pass": "defaultPass",
            "passes": {
                "defaultPass": {
                    "details": {
                        "commonProfile": {
                            "extras": {
                                "doubleSided": false
                            },
                            "lightingModel": "Phong",
                            "parameters": [
                                "diffuse",
                                "modelViewMatrix",
                                "normalMatrix",
                                "projectionMatrix",
                                "shininess",
                                "specular"
                            ]
                        },
                        "type": "COLLADA-1.4.1/commonProfile"
                    },
                    "instanceProgram": {
                        "attributes": {
                            "a_normal": "normal",
                            "a_position": "position"
                        },
                        "program": "program_0",
                        "uniforms": {
                            "u_diffuse": "diffuse",
                            "u_modelViewMatrix": "modelViewMatrix",
                            "u_normalMatrix": "normalMatrix",
                            "u_projectionMatrix": "projectionMatrix",
                            "u_shininess": "shininess",
                            "u_specular": "specular"
                        }
                    },
                    "states": {
                        "enable": [
                            2884,
                            2929
                        ]
                    }
                }
            }
        },
        "technique1": {
            "parameters": {
                "diffuse": {
                    "type": 35678
                },
                "modelViewMatrix": {
                    "semantic": "MODELVIEW",
                    "type": 35676
                },
                "normal": {
                    "semantic": "NORMAL",
                    "type": 35665
                },
                "normalMatrix": {
                    "semantic": "MODELVIEWINVERSETRANSPOSE",
                    "type": 35675
                },
                "position": {
                    "semantic": "POSITION",
                    "type": 35665
                },
                "projectionMatrix": {
                    "semantic": "PROJECTION",
                    "type": 35676
                },
                "shininess": {
                    "type": 5126
                },
                "specular": {
                    "type": 35666
                },
                "texcoord0": {
                    "semantic": "TEXCOORD_0",
                    "type": 35664
                }
            },
            "pass": "defaultPass",
            "passes": {
                "defaultPass": {
                    "details": {
                        "commonProfile": {
                            "extras": {
                                "doubleSided": false
                            },
                            "lightingModel": "Phong",
                            "parameters": [
                                "diffuse",
                                "modelViewMatrix",
                                "normalMatrix",
                                "projectionMatrix",
                                "shininess",
                                "specular"
                            ],
                            "texcoordBindings": {
                                "diffuse": "TEXCOORD_0"
                            }
                        },
                        "type": "COLLADA-1.4.1/commonProfile"
                    },
                    "instanceProgram": {
                        "attributes": {
                            "a_normal": "normal",
                            "a_position": "position",
                            "a_texcoord0": "texcoord0"
                        },
                        "program": "program_1",
                        "uniforms": {
                            "u_diffuse": "diffuse",
                            "u_modelViewMatrix": "modelViewMatrix",
                            "u_normalMatrix": "normalMatrix",
                            "u_projectionMatrix": "projectionMatrix",
                            "u_shininess": "shininess",
                            "u_specular": "specular"
                        }
                    },
                    "states": {
                        "enable": [
                            2884,
                            2929
                        ]
                    }
                }
            }
        }
    },
    "textures": {
        "texture_Image0001": {
            "format": 6408,
            "internalFormat": 6408,
            "sampler": "sampler_0",
            "source": "Image0001",
            "target": 3553,
            "type": 5121
        }
    }
}